{"asset":{"generator":"3D Builder","version":"2.0"},"scene":0,"scenes":[{"nodes":[0]}],"nodes":[{"mesh":0,"matrix":[1,0,0,0,0,-1.1920928955078125E-7,-0.99999988079071045,0,0,0.99999988079071045,-1.1920928955078125E-7,0,0,0,0,1]}],"meshes":[{"primitives":[{"attributes":{"POSITION":0,"TEXCOORD_0":4},"mode":4,"indices":5,"material":0},{"attributes":{"POSITION":1},"mode":4,"indices":6,"material":1},{"attributes":{"POSITION":2},"mode":4,"indices":7,"material":1},{"attributes":{"POSITION":3},"mode":4,"indices":8,"material":1}]}],"materials":[{"pbrMetallicRoughness":{"baseColorFactor":[1,1,1,1],"metallicFactor":0,"roughnessFactor":1,"baseColorTexture":{"index":0,"texCoord":0}},"alphaMode":"OPAQUE"},{"name":"Regular","pbrMetallicRoughness":{"baseColorFactor":[0.46207705140113831,0.7912980318069458,0.01228648703545332,1],"metallicFactor":0,"roughnessFactor":1},"alphaMode":"OPAQUE"}],"textures":[{"source":0,"sampler":0}],"images":[{"uri":"cellwall.png"}],"samplers":[{"magFilter":9729,"wrapS":10497,"wrapT":10497}],"accessors":[{"bufferView":0,"byteOffset":0,"count":643,"componentType":5126,"type":"VEC3","min":[0,0.011038455180823803,0],"max":[0.14732000231742859,0.18147245049476624,0.017094200477004051]},{"bufferView":0,"byteOffset":7716,"count":70,"componentType":5126,"type":"VEC3","min":[0.0930970311164856,0.039677426218986511,0.010769604705274105],"max":[0.13399101793766022,0.10266939550638199,0.017094200477004051]},{"bufferView":0,"byteOffset":8556,"count":67,"componentType":5126,"type":"VEC3","min":[0.012156082317233086,0.079946927726268768,0.015913100913167],"max":[0.035524081438779831,0.10331492871046066,0.017094200477004051]},{"bufferView":0,"byteOffset":9360,"count":230,"componentType":5126,"type":"VEC3","min":[0.00927702896296978,0.12382163107395172,0.005727705080062151],"max":[0.13399101793766022,0.15938162803649902,0.017094200477004051]},{"bufferView":1,"byteOffset":0,"count":643,"componentType":5126,"type":"VEC2"},{"bufferView":2,"byteOffset":0,"count":1698,"componentType":5125,"type":"SCALAR"},{"bufferView":2,"byteOffset":6792,"count":342,"componentType":5125,"type":"SCALAR"},{"bufferView":2,"byteOffset":8160,"count":246,"componentType":5125,"type":"SCALAR"},{"bufferView":2,"byteOffset":9144,"count":834,"componentType":5125,"type":"SCALAR"}],"bufferViews":[{"buffer":0,"byteOffset":0,"byteLength":12120,"byteStride":12,"target":34962},{"buffer":0,"byteOffset":12120,"byteLength":5144,"byteStride":8,"target":34962},{"buffer":0,"byteOffset":17264,"byteLength":12480,"target":34963}],"buffers":[{"byteLength":29744,"uri":"cellwall.bin"}]}