{"asset":{"generator":"3D Builder","version":"2.0"},"scene":0,"scenes":[{"nodes":[0]}],"nodes":[{"mesh":0,"matrix":[1,0,0,0,0,-1.1920928955078125E-7,-0.99999988079071045,0,0,0.99999988079071045,-1.1920928955078125E-7,0,0,0.0063245990313589573,-7.53951068244163E-10,1]}],"meshes":[{"primitives":[{"attributes":{"POSITION":0,"TEXCOORD_0":1},"mode":4,"indices":2,"material":0}]}],"materials":[{"pbrMetallicRoughness":{"baseColorFactor":[1,1,1,1],"metallicFactor":0,"roughnessFactor":1,"baseColorTexture":{"index":0,"texCoord":0}},"alphaMode":"OPAQUE"}],"textures":[{"source":0,"sampler":0}],"images":[{"uri":"mitochondrion.png"}],"samplers":[{"magFilter":9729,"wrapS":10497,"wrapT":10497}],"accessors":[{"bufferView":0,"byteOffset":0,"count":46,"componentType":5126,"type":"VEC3","min":[0,0,0],"max":[0.040893997997045517,0.062991999089717865,0.0063245999626815319]},{"bufferView":1,"byteOffset":0,"count":46,"componentType":5126,"type":"VEC2"},{"bufferView":2,"byteOffset":0,"count":264,"componentType":5125,"type":"SCALAR"}],"bufferViews":[{"buffer":0,"byteOffset":0,"byteLength":552,"byteStride":12,"target":34962},{"buffer":0,"byteOffset":552,"byteLength":368,"byteStride":8,"target":34962},{"buffer":0,"byteOffset":920,"byteLength":1056,"target":34963}],"buffers":[{"byteLength":1976,"uri":"mitochondrion.bin"}]}